<svg width="122" height="26" viewBox="0 0 122 26" fill="none" xmlns="http://www.w3.org/2000/svg">
<path d="M18.4 13.7072L27.744 25.6112H18.496L13.888 19.3392L9.248 25.6112H0L9.344 13.7072L0.32 2.37918H9.568L13.888 8.13918L18.176 2.37918H27.424L18.4 13.7072ZM36.3163 12.8112C36.2949 14.0912 36.2843 16.0538 36.2843 18.6992C36.2843 21.8778 36.3056 24.1818 36.3483 25.6112H28.7963L28.8283 21.9952C28.8709 18.0272 28.8923 14.9658 28.8923 12.8112C28.8923 10.7632 28.8709 7.86184 28.8283 4.10717L28.7963 0.651175H36.3483C36.3056 3.68051 36.2843 6.15517 36.2843 8.07517C36.2843 10.2085 36.2949 11.7872 36.3163 12.8112ZM55.2093 17.6112H44.7773C44.9479 18.5498 45.3639 19.3178 46.0253 19.9152C46.7079 20.4912 47.6679 20.7792 48.9053 20.7792C49.8013 20.7792 50.6439 20.6085 51.4333 20.2672C52.2226 19.9045 52.8519 19.4032 53.3213 18.7632C54.7506 19.4672 56.6493 20.2245 59.0173 21.0352C58.3559 22.5285 57.1506 23.7232 55.4013 24.6192C53.6733 25.4938 51.4119 25.9312 48.6173 25.9312C44.9906 25.9312 42.3026 25.0992 40.5533 23.4352C38.8253 21.7498 37.9613 19.5418 37.9613 16.8112C37.9613 14.1445 38.8253 11.9792 40.5533 10.3152C42.2813 8.65117 44.9693 7.81917 48.6173 7.81917C50.7933 7.81917 52.6813 8.18184 54.2813 8.90718C55.8813 9.63251 57.1079 10.6458 57.9613 11.9472C58.8146 13.2272 59.2413 14.6992 59.2413 16.3632C59.2413 16.9178 59.2199 17.3338 59.1773 17.6112H55.2093ZM49.0653 12.6512C47.9986 12.6512 47.1239 12.8538 46.4413 13.2592C45.7586 13.6645 45.2786 14.2192 45.0013 14.9232H52.5533C52.2973 14.2405 51.8813 13.6965 51.3053 13.2912C50.7293 12.8645 49.9826 12.6512 49.0653 12.6512ZM81.3408 20.2992C81.3408 21.0245 81.4261 21.5365 81.5968 21.8352C81.7674 22.1338 82.1088 22.3472 82.6208 22.4752L82.4928 25.4832C81.8101 25.5898 81.2128 25.6645 80.7008 25.7072C80.2101 25.7498 79.5488 25.7712 78.7168 25.7712C76.8821 25.7712 75.6661 25.3658 75.0688 24.5552C74.4714 23.7232 74.1728 22.6672 74.1728 21.3872V20.5872C73.5541 22.3365 72.6474 23.6378 71.4528 24.4912C70.2794 25.3445 68.7754 25.7712 66.9408 25.7712C64.8074 25.7712 63.1968 25.3445 62.1088 24.4912C61.0421 23.6378 60.5088 22.3685 60.5088 20.6832C60.5088 19.2965 60.9674 18.2085 61.8848 17.4192C62.8021 16.6298 64.2208 16.0858 66.1408 15.7872C64.5194 14.6352 62.8981 13.6325 61.2768 12.7792C62.5568 11.1578 64.0181 9.93117 65.6608 9.09917C67.3034 8.24584 69.2981 7.81917 71.6448 7.81917C74.9301 7.81917 77.3621 8.53384 78.9408 9.96317C80.5408 11.3712 81.3408 13.5472 81.3408 16.4912V20.2992ZM72.3168 13.4512C71.2288 13.4512 70.2688 13.6325 69.4368 13.9952C68.6048 14.3578 67.8581 14.9018 67.1968 15.6272C68.4768 15.4778 70.0768 15.4032 71.9968 15.4032C72.7861 15.4032 73.3408 15.3072 73.6608 15.1152C73.9808 14.9232 74.1408 14.6778 74.1408 14.3792C74.1408 14.1232 73.9808 13.9098 73.6608 13.7392C73.3408 13.5472 72.8928 13.4512 72.3168 13.4512ZM68.9568 20.5552C70.1514 20.5552 71.2288 20.3312 72.1888 19.8832C73.1488 19.4138 73.8101 18.8058 74.1728 18.0592V17.2272C73.6608 17.4832 73.0954 17.6858 72.4768 17.8352C71.8581 17.9632 71.1114 18.0912 70.2368 18.2192L69.0848 18.4112C67.8901 18.6458 67.2928 19.0512 67.2928 19.6272C67.2928 20.2458 67.8474 20.5552 68.9568 20.5552ZM91.3315 12.8752C92.2275 9.65384 94.4568 8.04317 98.0195 8.04317C98.6382 8.04317 99.2355 8.08584 99.8115 8.17118L98.7875 15.3392C97.2515 14.7632 95.9928 14.4752 95.0115 14.4752C93.7955 14.4752 92.8995 14.8378 92.3235 15.5632C91.7475 16.2885 91.4595 17.2592 91.4595 18.4752V18.4432L91.4275 20.5552C91.4275 22.0698 91.4702 23.7552 91.5555 25.6112H83.9075C84.0782 22.5392 84.1635 19.6378 84.1635 16.9072C84.1635 14.1765 84.0782 11.2538 83.9075 8.13918C85.3155 8.20317 86.3928 8.23517 87.1395 8.23517C87.9288 8.23517 89.0062 8.20317 90.3715 8.13918L91.3315 12.8752ZM114.216 25.6112C114.344 22.4752 114.408 19.5845 114.408 16.9392C114.408 16.0005 114.174 15.2538 113.704 14.6992C113.256 14.1445 112.68 13.8672 111.976 13.8672C111.272 13.8672 110.675 14.1872 110.184 14.8272C109.694 15.4458 109.406 16.2992 109.32 17.3872C109.278 19.0085 109.256 20.1605 109.256 20.8432C109.256 22.2938 109.299 23.8832 109.384 25.6112H101.736C101.907 22.5392 101.992 19.6378 101.992 16.9072C101.992 14.1765 101.907 11.2538 101.736 8.13918C103.144 8.20317 104.222 8.23517 104.968 8.23517C105.758 8.23517 106.835 8.20317 108.2 8.13918L109.128 12.8432C109.619 11.1365 110.387 9.87784 111.432 9.06717C112.478 8.23517 113.694 7.81917 115.08 7.81917C116.36 7.81917 117.47 8.10717 118.408 8.68317C119.347 9.23784 120.051 9.99517 120.52 10.9552C121.011 11.9152 121.256 12.9925 121.256 14.1872V18.7952C121.256 21.6325 121.31 23.9045 121.416 25.6112H114.216Z" fill="black"/>
</svg>
