<svg width="29" height="37" viewBox="0 0 29 37" fill="none" xmlns="http://www.w3.org/2000/svg">
<path d="M28.6737 1.29198C28.6309 1.19619 28.5611 1.11493 28.4729 1.05809C28.3847 1.00126 28.2819 0.971299 28.177 0.971871H12.8008C12.7084 0.972025 12.6176 0.995347 12.5366 1.0397C12.4556 1.08406 12.387 1.14803 12.3372 1.22575L0.515236 19.9907C0.458322 20.0724 0.425069 20.1683 0.419142 20.2677C0.413214 20.3671 0.434842 20.4662 0.481643 20.5541C0.528443 20.6419 0.5986 20.7152 0.684381 20.7658C0.770162 20.8164 0.868238 20.8423 0.967803 20.8407H9.43411L1.96124 35.4663C1.91834 35.5533 1.89817 35.6497 1.90263 35.7466C1.90708 35.8435 1.93601 35.9376 1.98672 36.0203C2.03743 36.103 2.10825 36.1714 2.19259 36.2193C2.27693 36.2672 2.37202 36.293 2.469 36.2941H5.78046C5.85707 36.2947 5.93294 36.2792 6.00326 36.2488C6.07357 36.2184 6.13679 36.1737 6.18888 36.1175L25.583 15.156C25.66 15.0775 25.7118 14.9778 25.7318 14.8697C25.7518 14.7616 25.739 14.65 25.6951 14.5492C25.6512 14.4484 25.5782 14.363 25.4855 14.3039C25.3928 14.2449 25.2845 14.2148 25.1746 14.2177H17.7348L28.5854 1.877C28.6554 1.79861 28.701 1.70153 28.7166 1.59764C28.7323 1.49374 28.7174 1.38753 28.6737 1.29198Z" fill="#552B8B"/>
</svg>
